  <svg fill="none" xmlns="http://www.w3.org/2000/svg" class="block w-full h-full" viewBox="0 0 155 51">
    <path d="M143.034 48.0016L145.795 44.08L142.493 38.791H145.111L147.188 42.1192L149.523 38.791H150.362L147.575 42.7513L150.865 48.0016H148.246L146.195 44.725L143.873 48.0016H143.034ZM148.62 47.3179H149.639L144.737 39.4747H143.718L148.62 47.3179Z" fill="#0F0F0F"></path>
    <path d="M136.191 44.5698C136.191 43.8732 136.324 43.3013 136.591 42.8541C136.857 42.4069 137.201 42.0758 137.623 41.8608C138.053 41.6372 138.5 41.5254 138.964 41.5254V42.9057C138.569 42.9057 138.195 42.9616 137.842 43.0734C137.498 43.1766 137.219 43.3486 137.004 43.5894C136.789 43.8302 136.681 44.1484 136.681 44.544L136.191 44.5698ZM135.236 48.0012V41.5512H136.681V48.0012H135.236Z" fill="#FF6000"></path>
    <path d="M130.708 48.1561C130.063 48.1561 129.486 48.0142 128.979 47.7304C128.48 47.438 128.089 47.0381 127.805 46.5307C127.521 46.0233 127.379 45.4385 127.379 44.7763C127.379 44.1141 127.517 43.5293 127.792 43.0219C128.076 42.5145 128.467 42.1189 128.966 41.8351C129.465 41.5427 130.037 41.3965 130.682 41.3965C131.327 41.3965 131.899 41.5427 132.397 41.8351C132.896 42.1189 133.283 42.5145 133.559 43.0219C133.842 43.5293 133.984 44.1141 133.984 44.7763C133.984 45.4385 133.847 46.0233 133.571 46.5307C133.296 47.0381 132.909 47.438 132.41 47.7304C131.912 48.0142 131.344 48.1561 130.708 48.1561ZM130.708 46.8274C131.06 46.8274 131.374 46.7414 131.649 46.5694C131.924 46.3888 132.139 46.148 132.294 45.847C132.449 45.5374 132.526 45.1805 132.526 44.7763C132.526 44.3721 132.445 44.0195 132.281 43.7185C132.127 43.4089 131.912 43.1681 131.636 42.9961C131.361 42.8155 131.043 42.7252 130.682 42.7252C130.321 42.7252 130.002 42.8112 129.727 42.9832C129.452 43.1552 129.237 43.396 129.082 43.7056C128.927 44.0152 128.85 44.3721 128.85 44.7763C128.85 45.1805 128.927 45.5374 129.082 45.847C129.246 46.148 129.465 46.3888 129.74 46.5694C130.024 46.7414 130.346 46.8274 130.708 46.8274Z" fill="#FF6000"></path>
    <path d="M123.548 48.0013V40.8676C123.548 40.1882 123.716 39.6679 124.051 39.3067C124.395 38.9369 124.911 38.752 125.599 38.752C125.823 38.752 126.06 38.7907 126.309 38.8681C126.567 38.9369 126.812 39.0315 127.044 39.1519L126.515 40.2226C126.352 40.1452 126.206 40.0893 126.077 40.0549C125.956 40.0205 125.849 40.0033 125.754 40.0033C125.496 40.0033 125.303 40.0893 125.174 40.2613C125.053 40.4247 124.993 40.6956 124.993 41.074V48.0013H123.548ZM122.439 42.7381V41.5513H126.683V42.7381H122.439Z" fill="#FF6000"></path>
    <path d="M115.563 48.1561C114.935 48.1561 114.376 48.0142 113.886 47.7304C113.404 47.438 113.022 47.0381 112.738 46.5307C112.463 46.0233 112.325 45.4385 112.325 44.7763C112.325 44.1141 112.467 43.5293 112.751 43.0219C113.035 42.5145 113.422 42.1189 113.912 41.8351C114.411 41.5427 114.978 41.3965 115.615 41.3965C116.191 41.3965 116.711 41.547 117.176 41.848C117.64 42.1404 118.005 42.5661 118.272 43.1251C118.547 43.6841 118.685 44.3506 118.685 45.1246H113.615L113.809 44.944C113.809 45.3396 113.895 45.6836 114.067 45.976C114.239 46.2598 114.467 46.4791 114.75 46.6339C115.034 46.7887 115.348 46.8661 115.692 46.8661C116.088 46.8661 116.415 46.7801 116.673 46.6081C116.931 46.4275 117.133 46.1953 117.279 45.9115L118.556 46.4533C118.375 46.7973 118.143 47.0983 117.859 47.3563C117.584 47.6143 117.253 47.8121 116.866 47.9497C116.488 48.0873 116.053 48.1561 115.563 48.1561ZM113.899 44.1958L113.693 44.0152H117.33L117.137 44.1958C117.137 43.8432 117.059 43.5551 116.905 43.3315C116.75 43.0993 116.552 42.9273 116.311 42.8155C116.079 42.6951 115.834 42.6349 115.576 42.6349C115.318 42.6349 115.06 42.6951 114.802 42.8155C114.544 42.9273 114.329 43.0993 114.157 43.3315C113.985 43.5551 113.899 43.8432 113.899 44.1958Z" fill="#FF6000"></path>
    <path d="M108.688 48.1561C108.026 48.1561 107.441 48.0142 106.934 47.7304C106.427 47.438 106.027 47.0381 105.734 46.5307C105.45 46.0233 105.309 45.4385 105.309 44.7763C105.309 44.1141 105.45 43.5293 105.734 43.0219C106.027 42.5145 106.422 42.1189 106.921 41.8351C107.428 41.5427 108.009 41.3965 108.663 41.3965C109.299 41.3965 109.875 41.5513 110.391 41.8609C110.907 42.1619 111.29 42.5962 111.539 43.1638L110.198 43.6798C110.06 43.396 109.849 43.1681 109.566 42.9961C109.282 42.8241 108.959 42.7381 108.598 42.7381C108.245 42.7381 107.932 42.8284 107.656 43.009C107.381 43.181 107.166 43.4218 107.011 43.7314C106.857 44.0324 106.779 44.3807 106.779 44.7763C106.779 45.1719 106.857 45.5245 107.011 45.8341C107.175 46.1351 107.394 46.3759 107.669 46.5565C107.953 46.7285 108.271 46.8145 108.624 46.8145C108.985 46.8145 109.308 46.7242 109.591 46.5436C109.875 46.3544 110.086 46.1007 110.223 45.7825L111.565 46.2985C111.316 46.8833 110.933 47.3391 110.417 47.6659C109.91 47.9927 109.333 48.1561 108.688 48.1561Z" fill="#FF6000"></path>
    <path d="M102.839 48.0013L102.775 46.7887V44.686C102.775 44.2474 102.727 43.8819 102.633 43.5895C102.547 43.2885 102.401 43.0606 102.194 42.9058C101.996 42.7424 101.73 42.6607 101.394 42.6607C101.085 42.6607 100.814 42.7252 100.582 42.8542C100.349 42.9832 100.152 43.1853 99.9883 43.4605L98.7241 42.9961C98.8617 42.7123 99.0423 42.45 99.2659 42.2092C99.4981 41.9598 99.7862 41.762 100.13 41.6158C100.483 41.4696 100.904 41.3965 101.394 41.3965C102.022 41.3965 102.547 41.5212 102.968 41.7706C103.39 42.0114 103.699 42.3597 103.897 42.8155C104.103 43.2713 104.207 43.8217 104.207 44.4667L104.168 48.0013H102.839ZM100.982 48.1561C100.208 48.1561 99.6056 47.9841 99.1756 47.6401C98.7542 47.2961 98.5435 46.8102 98.5435 46.1824C98.5435 45.5116 98.7671 44.9999 99.2143 44.6473C99.6701 44.2947 100.302 44.1184 101.111 44.1184H102.839V45.2278H101.575C100.999 45.2278 100.595 45.3095 100.362 45.4729C100.13 45.6277 100.014 45.8513 100.014 46.1437C100.014 46.3931 100.113 46.5909 100.311 46.7371C100.517 46.8747 100.801 46.9435 101.162 46.9435C101.489 46.9435 101.773 46.8704 102.014 46.7242C102.254 46.578 102.439 46.3845 102.568 46.1437C102.706 45.9029 102.775 45.632 102.775 45.331H103.2C103.2 46.2082 103.024 46.9005 102.671 47.4079C102.319 47.9067 101.756 48.1561 100.982 48.1561Z" fill="#FF6000"></path>
    <path d="M95.856 48.0007V38.9707H97.3008V48.0007H95.856Z" fill="#FF6000"></path>
    <path d="M88.2236 50.5813V41.5513H89.5781L89.6684 42.7381V50.5813H88.2236ZM91.7066 48.1561C91.1648 48.1561 90.6961 48.0185 90.3005 47.7433C89.9135 47.4595 89.6168 47.0639 89.4104 46.5565C89.204 46.0491 89.1008 45.4557 89.1008 44.7763C89.1008 44.0883 89.204 43.4949 89.4104 42.9961C89.6168 42.4887 89.9135 42.0974 90.3005 41.8222C90.6961 41.5384 91.1648 41.3965 91.7066 41.3965C92.2914 41.3965 92.7988 41.5384 93.2288 41.8222C93.6674 42.0974 94.0071 42.4887 94.2479 42.9961C94.4973 43.4949 94.622 44.0883 94.622 44.7763C94.622 45.4557 94.4973 46.0491 94.2479 46.5565C94.0071 47.0639 93.6674 47.4595 93.2288 47.7433C92.7988 48.0185 92.2914 48.1561 91.7066 48.1561ZM91.3454 46.8403C91.6894 46.8403 91.9947 46.7543 92.2613 46.5823C92.5279 46.4017 92.7386 46.1566 92.8934 45.847C93.0568 45.5374 93.1385 45.1805 93.1385 44.7763C93.1385 44.3721 93.0611 44.0152 92.9063 43.7056C92.7601 43.396 92.5537 43.1552 92.2871 42.9832C92.0205 42.8112 91.7109 42.7252 91.3583 42.7252C91.0315 42.7252 90.7391 42.8112 90.4811 42.9832C90.2231 43.1552 90.021 43.396 89.8748 43.7056C89.7372 44.0152 89.6684 44.3721 89.6684 44.7763C89.6684 45.1805 89.7372 45.5374 89.8748 45.847C90.021 46.1566 90.2188 46.4017 90.4682 46.5823C90.7262 46.7543 91.0186 46.8403 91.3454 46.8403Z" fill="#FF6000"></path>
    <path d="M85.662 48.1563C84.9826 48.1563 84.4623 47.9886 84.1011 47.6532C83.7485 47.3092 83.5722 46.819 83.5722 46.1826V39.5391H85.0041V45.9117C85.0041 46.2127 85.0729 46.4406 85.2105 46.5954C85.3567 46.7502 85.5674 46.8276 85.8426 46.8276C85.9286 46.8276 86.0232 46.8104 86.1264 46.776C86.2296 46.7416 86.3457 46.6771 86.4747 46.5825L87.0036 47.679C86.78 47.8338 86.5564 47.9499 86.3328 48.0273C86.1092 48.1133 85.8856 48.1563 85.662 48.1563ZM82.5015 42.7899V41.5515H86.7456V42.7899H82.5015Z" fill="#FF6000"></path>
    <path d="M78.8663 48.1561C78.2385 48.1561 77.6795 48.0142 77.1893 47.7304C76.7077 47.438 76.325 47.0381 76.0412 46.5307C75.766 46.0233 75.6284 45.4385 75.6284 44.7763C75.6284 44.1141 75.7703 43.5293 76.0541 43.0219C76.3379 42.5145 76.7249 42.1189 77.2151 41.8351C77.7139 41.5427 78.2815 41.3965 78.9179 41.3965C79.4941 41.3965 80.0144 41.547 80.4788 41.848C80.9432 42.1404 81.3087 42.5661 81.5753 43.1251C81.8505 43.6841 81.9881 44.3506 81.9881 45.1246H76.9184L77.1119 44.944C77.1119 45.3396 77.1979 45.6836 77.3699 45.976C77.5419 46.2598 77.7698 46.4791 78.0536 46.6339C78.3374 46.7887 78.6513 46.8661 78.9953 46.8661C79.3909 46.8661 79.7177 46.7801 79.9757 46.6081C80.2337 46.4275 80.4358 46.1953 80.582 45.9115L81.8591 46.4533C81.6785 46.7973 81.4463 47.0983 81.1625 47.3563C80.8873 47.6143 80.5562 47.8121 80.1692 47.9497C79.7908 48.0873 79.3565 48.1561 78.8663 48.1561ZM77.2022 44.1958L76.9958 44.0152H80.6336L80.4401 44.1958C80.4401 43.8432 80.3627 43.5551 80.2079 43.3315C80.0531 43.0993 79.8553 42.9273 79.6145 42.8155C79.3823 42.6951 79.1372 42.6349 78.8792 42.6349C78.6212 42.6349 78.3632 42.6951 78.1052 42.8155C77.8472 42.9273 77.6322 43.0993 77.4602 43.3315C77.2882 43.5551 77.2022 43.8432 77.2022 44.1958Z" fill="#FF6000"></path>
    <path d="M70.9575 46.1947L70.0803 45.2014L73.4342 41.5507H75.1758L70.9575 46.1947ZM69.5771 48.0007V38.9707H71.0219V48.0007H69.5771ZM73.6794 48.0007L71.409 44.6596L72.3507 43.6534L75.3951 48.0007H73.6794Z" fill="#FF6000"></path>
    <path d="M65.8457 44.5698C65.8457 43.8732 65.979 43.3013 66.2456 42.8541C66.5122 42.4069 66.8562 42.0758 67.2776 41.8608C67.7076 41.6372 68.1548 41.5254 68.6192 41.5254V42.9057C68.2236 42.9057 67.8495 42.9616 67.4969 43.0734C67.1529 43.1766 66.8734 43.3486 66.6584 43.5894C66.4434 43.8302 66.3359 44.1484 66.3359 44.544L65.8457 44.5698ZM64.8911 48.0012V41.5512H66.3359V48.0012H64.8911Z" fill="#FF6000"></path>
    <path d="M62.0603 48.0013L61.9958 46.7887V44.686C61.9958 44.2474 61.9486 43.8819 61.854 43.5895C61.768 43.2885 61.6217 43.0606 61.4153 42.9058C61.2175 42.7424 60.951 42.6607 60.6156 42.6607C60.306 42.6607 60.035 42.7252 59.8028 42.8542C59.5706 42.9832 59.3728 43.1853 59.2094 43.4605L57.9453 42.9961C58.0829 42.7123 58.2634 42.45 58.487 42.2092C58.7192 41.9598 59.0073 41.762 59.3513 41.6158C59.7039 41.4696 60.1254 41.3965 60.6156 41.3965C61.2434 41.3965 61.7679 41.5212 62.1893 41.7706C62.6107 42.0114 62.9203 42.3597 63.1181 42.8155C63.3245 43.2713 63.4277 43.8217 63.4277 44.4667L63.3891 48.0013H62.0603ZM60.2028 48.1561C59.4288 48.1561 58.8268 47.9841 58.3968 47.6401C57.9754 47.2961 57.7646 46.8102 57.7646 46.1824C57.7646 45.5116 57.9883 44.9999 58.4355 44.6473C58.8913 44.2947 59.5233 44.1184 60.3317 44.1184H62.0603V45.2278H60.7962C60.22 45.2278 59.8157 45.3095 59.5835 45.4729C59.3513 45.6277 59.2352 45.8513 59.2352 46.1437C59.2352 46.3931 59.3341 46.5909 59.5319 46.7371C59.7383 46.8747 60.0222 46.9435 60.3834 46.9435C60.7102 46.9435 60.9939 46.8704 61.2347 46.7242C61.4755 46.578 61.6605 46.3845 61.7895 46.1437C61.9271 45.9029 61.9958 45.632 61.9958 45.331H62.4215C62.4215 46.2082 62.2453 46.9005 61.8927 47.4079C61.5401 47.9067 60.9768 48.1561 60.2028 48.1561Z" fill="#FF6000"></path>
    <path d="M47.3994 48.0007V38.9707H48.999L51.837 43.1503L54.6492 38.9707H56.2617V48.0007H54.7653V41.3314L51.8241 45.6787L48.8958 41.3572V48.0007H47.3994Z" fill="#FF6000"></path>
    <path d="M39.4884 48.1561C38.8434 48.1561 38.2672 48.0142 37.7598 47.7304C37.261 47.438 36.8697 47.0381 36.5859 46.5307C36.3021 46.0233 36.1602 45.4385 36.1602 44.7763C36.1602 44.1141 36.2978 43.5293 36.573 43.0219C36.8568 42.5145 37.2481 42.1189 37.7469 41.8351C38.2457 41.5427 38.8176 41.3965 39.4626 41.3965C40.1076 41.3965 40.6795 41.5427 41.1783 41.8351C41.6771 42.1189 42.0641 42.5145 42.3393 43.0219C42.6231 43.5293 42.765 44.1141 42.765 44.7763C42.765 45.4385 42.6274 46.0233 42.3522 46.5307C42.077 47.0381 41.69 47.438 41.1912 47.7304C40.6924 48.0142 40.1248 48.1561 39.4884 48.1561ZM39.4884 46.8274C39.841 46.8274 40.1549 46.7414 40.4301 46.5694C40.7053 46.3888 40.9203 46.148 41.0751 45.847C41.2299 45.5374 41.3073 45.1805 41.3073 44.7763C41.3073 44.3721 41.2256 44.0195 41.0622 43.7185C40.9074 43.4089 40.6924 43.1681 40.4172 42.9961C40.142 42.8155 39.8238 42.7252 39.4626 42.7252C39.1014 42.7252 38.7832 42.8112 38.508 42.9832C38.2328 43.1552 38.0178 43.396 37.863 43.7056C37.7082 44.0152 37.6308 44.3721 37.6308 44.7763C37.6308 45.1805 37.7082 45.5374 37.863 45.847C38.0264 46.148 38.2457 46.3888 38.5209 46.5694C38.8047 46.7414 39.1272 46.8274 39.4884 46.8274Z" fill="#FF6000"></path>
    <path d="M34.1122 48.1563C33.4328 48.1563 32.9125 47.9886 32.5513 47.6532C32.1987 47.3092 32.0224 46.819 32.0224 46.1826V39.5391H33.4543V45.9117C33.4543 46.2127 33.5231 46.4406 33.6607 46.5954C33.8069 46.7502 34.0176 46.8276 34.2928 46.8276C34.3788 46.8276 34.4734 46.8104 34.5766 46.776C34.6798 46.7416 34.7959 46.6771 34.9249 46.5825L35.4538 47.679C35.2302 47.8338 35.0066 47.9499 34.783 48.0273C34.5594 48.1133 34.3358 48.1563 34.1122 48.1563ZM30.9517 42.7899V41.5515H35.1958V42.7899H30.9517Z" fill="#FF6000"></path>
    <path d="M23.9126 50.5813V41.5513H25.2671L25.3574 42.7381V50.5813H23.9126ZM27.3956 48.1561C26.8538 48.1561 26.3851 48.0185 25.9895 47.7433C25.6025 47.4595 25.3058 47.0639 25.0994 46.5565C24.893 46.0491 24.7898 45.4557 24.7898 44.7763C24.7898 44.0883 24.893 43.4949 25.0994 42.9961C25.3058 42.4887 25.6025 42.0974 25.9895 41.8222C26.3851 41.5384 26.8538 41.3965 27.3956 41.3965C27.9804 41.3965 28.4878 41.5384 28.9178 41.8222C29.3564 42.0974 29.6961 42.4887 29.9369 42.9961C30.1863 43.4949 30.311 44.0883 30.311 44.7763C30.311 45.4557 30.1863 46.0491 29.9369 46.5565C29.6961 47.0639 29.3564 47.4595 28.9178 47.7433C28.4878 48.0185 27.9804 48.1561 27.3956 48.1561ZM27.0344 46.8403C27.3784 46.8403 27.6837 46.7543 27.9503 46.5823C28.2169 46.4017 28.4276 46.1566 28.5824 45.847C28.7458 45.5374 28.8275 45.1805 28.8275 44.7763C28.8275 44.3721 28.7501 44.0152 28.5953 43.7056C28.4491 43.396 28.2427 43.1552 27.9761 42.9832C27.7095 42.8112 27.3999 42.7252 27.0473 42.7252C26.7205 42.7252 26.4281 42.8112 26.1701 42.9832C25.9121 43.1552 25.71 43.396 25.5638 43.7056C25.4262 44.0152 25.3574 44.3721 25.3574 44.7763C25.3574 45.1805 25.4262 45.5374 25.5638 45.847C25.71 46.1566 25.9078 46.4017 26.1572 46.5823C26.4152 46.7543 26.7076 46.8403 27.0344 46.8403Z" fill="#FF6000"></path>
    <path d="M17.699 50.7356C17.4926 50.7356 17.2604 50.6969 17.0024 50.6195C16.753 50.5421 16.5122 50.4432 16.28 50.3228L16.8218 49.1489C16.9852 49.2263 17.1357 49.2865 17.2733 49.3295C17.4109 49.3811 17.5227 49.4069 17.6087 49.4069C17.8151 49.4069 17.9871 49.351 18.1247 49.2392C18.2709 49.136 18.387 48.9812 18.473 48.7748L19.2341 46.9946L21.4142 41.5508H22.988L19.9952 48.6845C19.8146 49.0973 19.6297 49.4585 19.4405 49.7681C19.2599 50.0777 19.032 50.3142 18.7568 50.4776C18.4816 50.6496 18.129 50.7356 17.699 50.7356ZM18.8471 48.0008L15.9575 41.5508H17.5313L19.7759 46.9817L20.2403 48.0008H18.8471Z" fill="#FF6000"></path>
    <path d="M12.9483 44.5698C12.9483 43.8732 13.0816 43.3013 13.3482 42.8541C13.6148 42.4069 13.9588 42.0758 14.3802 41.8608C14.8102 41.6372 15.2574 41.5254 15.7218 41.5254V42.9057C15.3262 42.9057 14.9521 42.9616 14.5995 43.0734C14.2555 43.1766 13.976 43.3486 13.761 43.5894C13.546 43.8302 13.4385 44.1484 13.4385 44.544L12.9483 44.5698ZM11.9937 48.0012V41.5512H13.4385V48.0012H11.9937Z" fill="#FF6000"></path>
    <path d="M6.85081 48.156C5.98221 48.156 5.20821 47.9582 4.52881 47.5626C3.85801 47.1584 3.32911 46.608 2.94211 45.9114C2.56371 45.2062 2.37451 44.3978 2.37451 43.4862C2.37451 42.5746 2.56371 41.7705 2.94211 41.0739C3.32911 40.3687 3.85801 39.8183 4.52881 39.4227C5.19961 39.0185 5.96931 38.8164 6.83791 38.8164C7.42271 38.8164 7.97311 38.9239 8.48911 39.1389C9.00511 39.3453 9.46091 39.6334 9.85651 40.0032C10.2607 40.373 10.5703 40.803 10.7853 41.2932L9.41791 41.8479C9.26311 41.5211 9.05241 41.233 8.78581 40.9836C8.52781 40.7256 8.23111 40.5278 7.89571 40.3902C7.56031 40.2526 7.20771 40.1838 6.83791 40.1838C6.27031 40.1838 5.76291 40.3257 5.31571 40.6095C4.87711 40.8933 4.52881 41.2846 4.27081 41.7834C4.02141 42.2736 3.89671 42.8412 3.89671 43.4862C3.89671 44.1312 4.02141 44.7031 4.27081 45.2019C4.52881 45.7007 4.88141 46.092 5.32861 46.3758C5.78441 46.6596 6.30041 46.8015 6.87661 46.8015C7.25501 46.8015 7.60761 46.7284 7.93441 46.5822C8.26981 46.4274 8.56651 46.2167 8.82451 45.9501C9.09111 45.6835 9.30181 45.3739 9.45661 45.0213L10.824 45.576C10.609 46.0834 10.3037 46.5349 9.90811 46.9305C9.51251 47.3175 9.05241 47.6185 8.52781 47.8335C8.00321 48.0485 7.44421 48.156 6.85081 48.156Z" fill="#FF6000"></path>
    <path d="M146.688 23.3852C145.088 23.3852 143.658 23.0332 142.4 22.3292C141.162 21.6039 140.192 20.6119 139.488 19.3532C138.784 18.0945 138.432 16.6439 138.432 15.0012C138.432 13.3585 138.773 11.9079 139.456 10.6492C140.16 9.39052 141.13 8.40919 142.368 7.70519C143.605 6.97985 145.024 6.61719 146.624 6.61719C148.224 6.61719 149.642 6.97985 150.88 7.70519C152.117 8.40919 153.077 9.39052 153.76 10.6492C154.464 11.9079 154.816 13.3585 154.816 15.0012C154.816 16.6439 154.474 18.0945 153.792 19.3532C153.109 20.6119 152.149 21.6039 150.912 22.3292C149.674 23.0332 148.266 23.3852 146.688 23.3852ZM146.688 20.0892C147.562 20.0892 148.341 19.8759 149.024 19.4492C149.706 19.0012 150.24 18.4039 150.624 17.6572C151.008 16.8892 151.2 16.0039 151.2 15.0012C151.2 13.9985 150.997 13.1239 150.592 12.3772C150.208 11.6092 149.674 11.0119 148.992 10.5852C148.309 10.1372 147.52 9.91319 146.624 9.91319C145.728 9.91319 144.938 10.1265 144.256 10.5532C143.573 10.9799 143.04 11.5772 142.656 12.3452C142.272 13.1132 142.08 13.9985 142.08 15.0012C142.08 16.0039 142.272 16.8892 142.656 17.6572C143.061 18.4039 143.605 19.0012 144.288 19.4492C144.992 19.8759 145.792 20.0892 146.688 20.0892Z" fill="#FF6000"></path>
    <path d="M133.352 23.3858C131.666 23.3858 130.376 22.9698 129.48 22.1378C128.605 21.2844 128.168 20.0684 128.168 18.4898V2.00977H131.72V17.8178C131.72 18.5644 131.89 19.1298 132.232 19.5138C132.594 19.8978 133.117 20.0898 133.8 20.0898C134.013 20.0898 134.248 20.0471 134.504 19.9618C134.76 19.8764 135.048 19.7164 135.368 19.4818L136.68 22.2018C136.125 22.5858 135.57 22.8738 135.016 23.0658C134.461 23.2791 133.906 23.3858 133.352 23.3858ZM125.512 10.0738V7.00177H136.04V10.0738H125.512Z" fill="#FF6000"></path>
    <path d="M108.05 29.4012V7.00119H111.41L111.634 9.94519V29.4012H108.05ZM116.69 23.3852C115.346 23.3852 114.183 23.0439 113.202 22.3612C112.242 21.6572 111.506 20.6759 110.994 19.4172C110.482 18.1585 110.226 16.6865 110.226 15.0012C110.226 13.2945 110.482 11.8225 110.994 10.5852C111.506 9.32652 112.242 8.35585 113.202 7.67319C114.183 6.96919 115.346 6.61719 116.69 6.61719C118.14 6.61719 119.399 6.96919 120.466 7.67319C121.554 8.35585 122.396 9.32652 122.994 10.5852C123.612 11.8225 123.922 13.2945 123.922 15.0012C123.922 16.6865 123.612 18.1585 122.994 19.4172C122.396 20.6759 121.554 21.6572 120.466 22.3612C119.399 23.0439 118.14 23.3852 116.69 23.3852ZM115.794 20.1212C116.647 20.1212 117.404 19.9079 118.066 19.4812C118.727 19.0332 119.25 18.4252 119.634 17.6572C120.039 16.8892 120.242 16.0039 120.242 15.0012C120.242 13.9985 120.05 13.1132 119.666 12.3452C119.303 11.5772 118.791 10.9799 118.13 10.5532C117.468 10.1265 116.7 9.91319 115.826 9.91319C115.015 9.91319 114.29 10.1265 113.65 10.5532C113.01 10.9799 112.508 11.5772 112.146 12.3452C111.804 13.1132 111.634 13.9985 111.634 15.0012C111.634 16.0039 111.804 16.8892 112.146 17.6572C112.508 18.4252 112.999 19.0332 113.618 19.4812C114.258 19.9079 114.983 20.1212 115.794 20.1212Z" fill="#FF6000"></path>
    <path d="M92.6369 29.784C92.1249 29.784 91.5489 29.688 90.9089 29.496C90.2902 29.304 89.6929 29.0587 89.1169 28.76L90.4609 25.848C90.8662 26.04 91.2396 26.1893 91.5809 26.296C91.9222 26.424 92.1996 26.488 92.4129 26.488C92.9249 26.488 93.3516 26.3493 93.6929 26.072C94.0556 25.816 94.3436 25.432 94.5569 24.92L96.4449 20.504L101.853 7H105.757L98.3329 24.696C97.8849 25.72 97.4262 26.616 96.9569 27.384C96.5089 28.152 95.9436 28.7387 95.2609 29.144C94.5782 29.5707 93.7036 29.784 92.6369 29.784ZM95.4849 23L88.3169 7H92.2209L97.7889 20.472L98.9409 23H95.4849Z" fill="#FF6000"></path>
    <path d="M80.8519 14.4895C80.8519 12.7615 81.1826 11.3428 81.8439 10.2335C82.5052 9.12417 83.3586 8.30283 84.4039 7.7695C85.4706 7.21483 86.5799 6.9375 87.7319 6.9375V10.3615C86.7506 10.3615 85.8226 10.5002 84.9479 10.7775C84.0946 11.0335 83.4012 11.4602 82.8679 12.0575C82.3346 12.6548 82.0679 13.4442 82.0679 14.4255L80.8519 14.4895ZM78.4839 23.0015V7.0015H82.0679V23.0015H78.4839Z" fill="#FF6000"></path>
    <path d="M65.7266 23.3848C63.5719 23.3848 61.6519 22.8941 59.9666 21.9128C58.3026 20.9101 56.9906 19.5448 56.0306 17.8168C55.0919 16.0675 54.6226 14.0621 54.6226 11.8008C54.6226 9.53946 55.0919 7.5448 56.0306 5.8168C56.9906 4.06746 58.3026 2.70213 59.9666 1.7208C61.6306 0.71813 63.5399 0.216797 65.6946 0.216797C67.1452 0.216797 68.5106 0.483463 69.7906 1.0168C71.0706 1.5288 72.2012 2.24346 73.1826 3.1608C74.1852 4.07813 74.9532 5.1448 75.4866 6.3608L72.0946 7.7368C71.7106 6.92613 71.1879 6.21146 70.5266 5.5928C69.8866 4.9528 69.1506 4.46213 68.3186 4.1208C67.4866 3.77946 66.6119 3.6088 65.6946 3.6088C64.2866 3.6088 63.0279 3.9608 61.9186 4.6648C60.8306 5.3688 59.9666 6.33946 59.3266 7.5768C58.7079 8.7928 58.3986 10.2008 58.3986 11.8008C58.3986 13.4008 58.7079 14.8195 59.3266 16.0568C59.9666 17.2941 60.8412 18.2648 61.9506 18.9688C63.0812 19.6728 64.3612 20.0248 65.7906 20.0248C66.7292 20.0248 67.6039 19.8435 68.4146 19.4808C69.2466 19.0968 69.9826 18.5741 70.6226 17.9128C71.2839 17.2515 71.8066 16.4835 72.1906 15.6088L75.5826 16.9848C75.0492 18.2435 74.2919 19.3635 73.3106 20.3448C72.3292 21.3048 71.1879 22.0515 69.8866 22.5848C68.5852 23.1181 67.1986 23.3848 65.7266 23.3848Z" fill="#FF6000"></path>
    <path d="M38.3831 14.4895C38.3831 12.7615 38.7138 11.3428 39.3751 10.2335C40.0365 9.12417 40.8898 8.30283 41.9351 7.7695C43.0018 7.21483 44.1111 6.9375 45.2631 6.9375V10.3615C44.2818 10.3615 43.3538 10.5002 42.4791 10.7775C41.6258 11.0335 40.9325 11.4602 40.3991 12.0575C39.8658 12.6548 39.5991 13.4442 39.5991 14.4255L38.3831 14.4895ZM36.0151 23.0015V7.0015H39.5991V23.0015H36.0151Z" fill="#FF6000"></path>
    <path d="M24.7814 23.3852C23.1814 23.3852 21.7521 23.0332 20.4934 22.3292C19.2561 21.6039 18.2854 20.6119 17.5814 19.3532C16.8774 18.0945 16.5254 16.6439 16.5254 15.0012C16.5254 13.3585 16.8667 11.9079 17.5494 10.6492C18.2534 9.39052 19.2241 8.40919 20.4614 7.70519C21.6987 6.97985 23.1174 6.61719 24.7174 6.61719C26.3174 6.61719 27.7361 6.97985 28.9734 7.70519C30.2107 8.40919 31.1707 9.39052 31.8534 10.6492C32.5574 11.9079 32.9094 13.3585 32.9094 15.0012C32.9094 16.6439 32.5681 18.0945 31.8854 19.3532C31.2027 20.6119 30.2427 21.6039 29.0054 22.3292C27.7681 23.0332 26.3601 23.3852 24.7814 23.3852ZM24.7814 20.0892C25.6561 20.0892 26.4347 19.8759 27.1174 19.4492C27.8001 19.0012 28.3334 18.4039 28.7174 17.6572C29.1014 16.8892 29.2934 16.0039 29.2934 15.0012C29.2934 13.9985 29.0907 13.1239 28.6854 12.3772C28.3014 11.6092 27.7681 11.0119 27.0854 10.5852C26.4027 10.1372 25.6134 9.91319 24.7174 9.91319C23.8214 9.91319 23.0321 10.1265 22.3494 10.5532C21.6667 10.9799 21.1334 11.5772 20.7494 12.3452C20.3654 13.1132 20.1734 13.9985 20.1734 15.0012C20.1734 16.0039 20.3654 16.8892 20.7494 17.6572C21.1547 18.4039 21.6987 19.0012 22.3814 19.4492C23.0854 19.8759 23.8854 20.0892 24.7814 20.0892Z" fill="#FF6000"></path>
    <path d="M0.718262 23.0016V0.601562H14.6383V3.99356H4.43026V10.2656H13.1663V13.6576H4.43026V23.0016H0.718262Z" fill="#FF6000"></path>
  </svg>
